<svg width="100" height="118" viewBox="0 0 100 118" fill="none" xmlns="http://www.w3.org/2000/svg">
<path d="M96.8027 19.2389L51.7623 0.538588C50.634 0.07026 49.3657 0.0700302 48.2377 0.538588L3.19727 19.2389C1.48183 19.9512 0.363632 21.626 0.363632 23.4835V46.2162C0.363632 77.5177 19.2827 105.674 48.2632 117.503C49.3763 117.957 50.6234 117.957 51.7368 117.503C80.7169 105.674 99.6364 77.5179 99.6364 46.2162V23.4835C99.6364 21.626 98.5184 19.9512 96.8027 19.2389ZM90.4444 46.2162C90.4444 72.8257 74.8182 97.3215 50 108.256C25.845 97.6135 9.55555 73.5468 9.55555 46.2162V26.5517L50 9.75946L90.4444 26.5517V46.2162ZM44.9201 61.7078L64.6744 41.9537C66.4692 40.159 69.3791 40.1588 71.174 41.9537C72.969 43.7487 72.9688 46.6586 71.1738 48.4533L48.1699 71.4572C46.3747 73.2524 43.4648 73.2517 41.6703 71.4572L28.8259 58.6129C27.031 56.818 27.031 53.908 28.8259 52.1133C30.6209 50.3186 33.5308 50.3184 35.3256 52.1133L44.9201 61.7078Z" fill="black"/>
</svg>
