<svg width="115" height="115" viewBox="0 0 115 115" fill="none" xmlns="http://www.w3.org/2000/svg">
<mask id="path-1-outside-1" maskUnits="userSpaceOnUse" x="3.05176e-05" y="6.10352e-05" width="115" height="115" fill="black">
<rect fill="white" x="3.05176e-05" y="6.10352e-05" width="115" height="115"/>
<path fill-rule="evenodd" clip-rule="evenodd" d="M57.2767 112.553C87.8052 112.553 112.553 87.8053 112.553 57.2768C112.553 26.7483 87.8052 2.00006 57.2767 2.00006C26.7483 2.00006 2.00003 26.7483 2.00003 57.2768C2.00003 87.8053 26.7483 112.553 57.2767 112.553ZM57.2768 106.292C84.347 106.292 106.292 84.3473 106.292 57.2771C106.292 30.2069 84.347 8.2622 57.2768 8.2622C30.2066 8.2622 8.2619 30.2069 8.2619 57.2771C8.2619 84.3473 30.2066 106.292 57.2768 106.292Z"/>
</mask>
<path fill-rule="evenodd" clip-rule="evenodd" d="M57.2767 112.553C87.8052 112.553 112.553 87.8053 112.553 57.2768C112.553 26.7483 87.8052 2.00006 57.2767 2.00006C26.7483 2.00006 2.00003 26.7483 2.00003 57.2768C2.00003 87.8053 26.7483 112.553 57.2767 112.553ZM57.2768 106.292C84.347 106.292 106.292 84.3473 106.292 57.2771C106.292 30.2069 84.347 8.2622 57.2768 8.2622C30.2066 8.2622 8.2619 30.2069 8.2619 57.2771C8.2619 84.3473 30.2066 106.292 57.2768 106.292Z" fill="black"/>
<path d="M110.553 57.2768C110.553 86.7007 86.7007 110.553 57.2767 110.553V114.553C88.9098 114.553 114.553 88.9098 114.553 57.2768H110.553ZM57.2767 4.00006C86.7007 4.00006 110.553 27.8529 110.553 57.2768H114.553C114.553 25.6437 88.9098 6.10352e-05 57.2767 6.10352e-05V4.00006ZM4.00003 57.2768C4.00003 27.8529 27.8528 4.00006 57.2767 4.00006V6.10352e-05C25.6437 6.10352e-05 3.05176e-05 25.6437 3.05176e-05 57.2768H4.00003ZM57.2767 110.553C27.8528 110.553 4.00003 86.7007 4.00003 57.2768H3.05176e-05C3.05176e-05 88.9098 25.6437 114.553 57.2767 114.553V110.553ZM104.292 57.2771C104.292 83.2427 83.2424 104.292 57.2768 104.292V108.292C85.4515 108.292 108.292 85.4518 108.292 57.2771H104.292ZM57.2768 10.2622C83.2424 10.2622 104.292 31.3115 104.292 57.2771H108.292C108.292 29.1023 85.4515 6.2622 57.2768 6.2622V10.2622ZM10.2619 57.2771C10.2619 31.3115 31.3112 10.2622 57.2768 10.2622V6.2622C29.102 6.2622 6.2619 29.1023 6.2619 57.2771H10.2619ZM57.2768 104.292C31.3112 104.292 10.2619 83.2427 10.2619 57.2771H6.2619C6.2619 85.4518 29.102 108.292 57.2768 108.292V104.292Z" fill="black" mask="url(#path-1-outside-1)"/>
<path d="M53.1802 65.656L52.408 65.0207L51.7727 65.793C51.4575 66.1761 51.2006 66.6057 51.0178 67.0607C50.8352 67.5154 50.7272 67.9944 50.71 68.4728C50.6928 68.9514 50.7667 69.4274 50.9451 69.867C51.1243 70.3084 51.4034 70.6985 51.7728 71.0023C52.1422 71.3062 52.5787 71.5048 53.0464 71.5956C53.5121 71.6859 53.9934 71.6667 54.4597 71.5575C54.9258 71.4483 55.3751 71.25 55.786 70.9832C56.1973 70.7162 56.5693 70.3812 56.8844 69.9981L57.5197 69.2258L56.7474 68.5905L54.9638 67.1233L53.1802 65.656Z" fill="black" stroke="black" stroke-width="2"/>
<rect x="50.6393" y="39.1852" width="8.47774" height="28.9896" fill="black" stroke="black" stroke-width="2"/>
<path d="M80.2527 53.1928L79.8807 52.2645L78.9525 52.6365L52.9751 63.0461L52.0469 63.4181L52.4188 64.3463L54.8283 70.3593L55.2003 71.2875L56.1286 70.9156L82.1059 60.5059L83.0342 60.134L82.6622 59.2057L80.2527 53.1928Z" fill="black" stroke="black" stroke-width="2"/>
<path d="M58.1153 38.2123L59.1153 38.2123L59.1153 37.2123C59.1153 36.6741 59.0017 36.1431 58.7831 35.65C58.5645 35.1572 58.2462 34.714 57.8499 34.3439C57.4538 33.9739 56.9871 33.6836 56.4781 33.4867C55.9692 33.2898 55.4259 33.1892 54.8787 33.1892C54.3314 33.1892 53.7881 33.2898 53.2792 33.4866C52.7702 33.6835 52.3035 33.9737 51.9073 34.3437C51.511 34.7138 51.1927 35.1569 50.9741 35.6498C50.7554 36.1428 50.6418 36.6738 50.6418 37.212L50.6417 38.212L51.6417 38.212L54.8785 38.2122L58.1153 38.2123Z" fill="black" stroke="black" stroke-width="2"/>
<path d="M83.4 58.9039L83.772 59.8322L84.7002 59.4602C85.1999 59.26 85.6506 58.9569 86.0269 58.5704C86.403 58.184 86.6959 57.7235 86.892 57.2177C87.088 56.7121 87.1836 56.1708 87.1769 55.6249C87.1702 55.0792 87.0614 54.5373 86.8578 54.0291C86.6542 53.5209 86.3587 53.0538 85.9866 52.6545C85.6145 52.2551 85.1715 51.9296 84.6806 51.6992C84.1895 51.4688 83.6597 51.3379 83.1208 51.3182C82.5818 51.2985 82.0464 51.3906 81.5468 51.5908L80.6186 51.9627L80.9905 52.891L82.1953 55.8975L83.4 58.9039Z" fill="black" stroke="black" stroke-width="2"/>
</svg>
