<svg width="60" height="60" viewBox="0 0 60 60" fill="none" xmlns="http://www.w3.org/2000/svg">
<path fill-rule="evenodd" clip-rule="evenodd" d="M30 60C46.5685 60 60 46.5685 60 30C60 13.4315 46.5685 0 30 0C13.4315 0 0 13.4315 0 30C0 46.5685 13.4315 60 30 60ZM30 56.6016C44.6916 56.6016 56.6016 44.6916 56.6016 30C56.6016 15.3084 44.6916 3.39844 30 3.39844C15.3084 3.39844 3.39844 15.3084 3.39844 30C3.39844 44.6916 15.3084 56.6016 30 56.6016Z" fill="black"/>
<path d="M27.6924 34.9522C27.6924 35.1676 27.7378 35.381 27.8262 35.58C27.9145 35.7791 28.044 35.9599 28.2072 36.1123C28.3704 36.2646 28.5642 36.3855 28.7775 36.468C28.9907 36.5504 29.2193 36.5929 29.4501 36.5929C29.681 36.5929 29.9096 36.5504 30.1228 36.468C30.3361 36.3856 30.5299 36.2647 30.6931 36.1124C30.8563 35.96 30.9858 35.7792 31.0742 35.5801C31.1625 35.3811 31.208 35.1678 31.208 34.9523L29.4502 34.9522L27.6924 34.9522Z" fill="black"/>
<rect x="27.6939" y="13.5737" width="3.51563" height="21.4345" fill="black"/>
<path d="M48.517 25.2985L49.8247 28.5619L29.9282 36.5348L28.6205 33.2714L48.517 25.2985Z" fill="black"/>
<path d="M31.2095 13.6408C31.2095 13.4253 31.164 13.212 31.0757 13.0129C30.9874 12.8139 30.8579 12.633 30.6947 12.4806C30.5314 12.3283 30.3377 12.2074 30.1244 12.125C29.9111 12.0425 29.6826 12.0001 29.4517 12.0001C29.2209 12.0001 28.9923 12.0425 28.779 12.1249C28.5658 12.2074 28.372 12.3282 28.2087 12.4805C28.0455 12.6329 27.916 12.8137 27.8277 13.0128C27.7393 13.2118 27.6939 13.4252 27.6938 13.6406L29.4517 13.6407L31.2095 13.6408Z" fill="black"/>
<path d="M49.6316 28.6369C49.8316 28.5568 50.0127 28.4352 50.1646 28.2792C50.3165 28.1231 50.4362 27.9357 50.5169 27.7275C50.5976 27.5193 50.6377 27.2945 50.6349 27.0659C50.6321 26.8372 50.5865 26.6093 50.5006 26.395C50.4148 26.1807 50.2904 25.9843 50.1345 25.817C49.9786 25.6497 49.7944 25.5148 49.5923 25.42C49.3901 25.3251 49.1741 25.2722 48.9565 25.2642C48.7388 25.2563 48.5239 25.2934 48.3239 25.3736L48.9777 27.0052L49.6316 28.6369Z" fill="black"/>
</svg>
