<svg width="100" height="100" viewBox="0 0 100 100" fill="none" xmlns="http://www.w3.org/2000/svg">
<path d="M97.8451 92.3684L75.1786 69.7068C81.2242 62.4398 84.8616 53.107 84.8616 42.9379C84.8616 19.8157 66.0517 1.03223 42.9468 1.03223C19.82 1.03223 1.03207 19.8376 1.03207 42.9379C1.03207 66.0385 19.8416 84.8436 42.9468 84.8436C53.1181 84.8436 62.4531 81.2069 69.7217 75.1625L92.3885 97.8244C93.1283 98.5639 94.1269 98.9681 95.1168 98.9681C96.0871 98.9681 97.0961 98.5984 97.852 97.8175C99.3421 96.3202 99.3399 93.8628 97.8451 92.3684ZM8.75546 42.9379C8.75546 24.0909 24.0943 8.77561 42.9255 8.77561C61.7773 8.77561 77.0956 24.1114 77.0956 42.9379C77.0956 61.7652 61.7765 77.1215 42.9255 77.1215C24.0951 77.1215 8.75546 61.7857 8.75546 42.9379Z" fill="black" stroke="black" stroke-width="2"/>
</svg>
